<mxfile host="65bd71144e" modified="2021-01-11T04:31:29.593Z" agent="5.0 (Macintosh; Intel Mac OS X 10_12_6) AppleWebKit/537.36 (KHTML, like Gecko) Code/1.51.1 Chrome/83.0.4103.122 Electron/9.3.3 Safari/537.36" etag="etnj2PrC0tFi4JPQTPxc" version="13.10.0" type="embed">
    <diagram id="e7cXwH6r_yYMy_7RqmJk" name="Page-1">
        <mxGraphModel dx="943" dy="708" grid="1" gridSize="10" guides="1" tooltips="1" connect="1" arrows="1" fold="1" page="1" pageScale="1" pageWidth="850" pageHeight="1100" math="0" shadow="0">
            <root>
                <mxCell id="0"/>
                <mxCell id="1" parent="0"/>
                <mxCell id="6YbCgSacSCpo9KkrC0tL-1" value="first name&lt;br&gt;&lt;br&gt;last name&lt;br&gt;&lt;br&gt;username&lt;br&gt;&lt;br&gt;password" style="shape=internalStorage;whiteSpace=wrap;html=1;backgroundOutline=1;dx=40;dy=40;" parent="1" vertex="1">
                    <mxGeometry x="79" y="200" width="220" height="200" as="geometry"/>
                </mxCell>
                <mxCell id="6YbCgSacSCpo9KkrC0tL-2" value="Member Table" style="rounded=0;whiteSpace=wrap;html=1;" parent="1" vertex="1">
                    <mxGeometry x="80" y="170" width="220" height="30" as="geometry"/>
                </mxCell>
                <mxCell id="2" value="PK" style="text;html=1;strokeColor=none;fillColor=none;align=center;verticalAlign=middle;whiteSpace=wrap;rounded=0;" vertex="1" parent="1">
                    <mxGeometry x="80" y="210" width="40" height="20" as="geometry"/>
                </mxCell>
                <mxCell id="3" value="id" style="text;html=1;strokeColor=none;fillColor=none;align=center;verticalAlign=middle;whiteSpace=wrap;rounded=0;" vertex="1" parent="1">
                    <mxGeometry x="130" y="210" width="40" height="20" as="geometry"/>
                </mxCell>
                <mxCell id="4" value="str" style="text;html=1;strokeColor=none;fillColor=none;align=center;verticalAlign=middle;whiteSpace=wrap;rounded=0;" vertex="1" parent="1">
                    <mxGeometry x="79" y="250" width="40" height="20" as="geometry"/>
                </mxCell>
                <mxCell id="5" value="str" style="text;html=1;strokeColor=none;fillColor=none;align=center;verticalAlign=middle;whiteSpace=wrap;rounded=0;" vertex="1" parent="1">
                    <mxGeometry x="79" y="270" width="40" height="20" as="geometry"/>
                </mxCell>
                <mxCell id="6" value="str" style="text;html=1;strokeColor=none;fillColor=none;align=center;verticalAlign=middle;whiteSpace=wrap;rounded=0;" vertex="1" parent="1">
                    <mxGeometry x="79" y="300" width="40" height="20" as="geometry"/>
                </mxCell>
                <mxCell id="7" value="str" style="text;html=1;strokeColor=none;fillColor=none;align=center;verticalAlign=middle;whiteSpace=wrap;rounded=0;" vertex="1" parent="1">
                    <mxGeometry x="79" y="330" width="40" height="20" as="geometry"/>
                </mxCell>
                <mxCell id="8" value="title&lt;br&gt;&lt;br&gt;author&lt;br&gt;&lt;br&gt;genre&lt;br&gt;&lt;br&gt;isbn&lt;br&gt;&lt;br&gt;status/list ?" style="shape=internalStorage;whiteSpace=wrap;html=1;backgroundOutline=1;dx=40;dy=40;" vertex="1" parent="1">
                    <mxGeometry x="440" y="85" width="220" height="225" as="geometry"/>
                </mxCell>
                <mxCell id="9" value="comment" style="shape=internalStorage;whiteSpace=wrap;html=1;backgroundOutline=1;dx=40;dy=40;" vertex="1" parent="1">
                    <mxGeometry x="440" y="410" width="220" height="200" as="geometry"/>
                </mxCell>
                <mxCell id="10" value="Book Table" style="rounded=0;whiteSpace=wrap;html=1;" vertex="1" parent="1">
                    <mxGeometry x="440" y="55" width="220" height="30" as="geometry"/>
                </mxCell>
                <mxCell id="11" value="Post Table" style="rounded=0;whiteSpace=wrap;html=1;" vertex="1" parent="1">
                    <mxGeometry x="440" y="380" width="220" height="30" as="geometry"/>
                </mxCell>
                <mxCell id="12" value="PK" style="text;html=1;strokeColor=none;fillColor=none;align=center;verticalAlign=middle;whiteSpace=wrap;rounded=0;" vertex="1" parent="1">
                    <mxGeometry x="440" y="100" width="40" height="20" as="geometry"/>
                </mxCell>
                <mxCell id="13" value="id" style="text;html=1;strokeColor=none;fillColor=none;align=center;verticalAlign=middle;whiteSpace=wrap;rounded=0;" vertex="1" parent="1">
                    <mxGeometry x="490" y="100" width="40" height="20" as="geometry"/>
                </mxCell>
                <mxCell id="14" value="id" style="text;html=1;strokeColor=none;fillColor=none;align=center;verticalAlign=middle;whiteSpace=wrap;rounded=0;" vertex="1" parent="1">
                    <mxGeometry x="490" y="420" width="40" height="20" as="geometry"/>
                </mxCell>
                <mxCell id="15" value="PK" style="text;html=1;strokeColor=none;fillColor=none;align=center;verticalAlign=middle;whiteSpace=wrap;rounded=0;" vertex="1" parent="1">
                    <mxGeometry x="440" y="420" width="40" height="20" as="geometry"/>
                </mxCell>
            </root>
        </mxGraphModel>
    </diagram>
</mxfile>